<svg width="60" height="60" viewBox="0 0 60 60" fill="none" xmlns="http://www.w3.org/2000/svg">
<g clip-path="url(#paint0_angular_1_1515_clip_path)" data-figma-skip-parse="true"><g transform="matrix(0 0.009375 -0.009375 0 48.75 11.25)"><foreignObject x="-1853.33" y="-1853.33" width="3706.67" height="3706.67"><div xmlns="http://www.w3.org/1999/xhtml" style="background:conic-gradient(from 90deg,rgba(35, 87, 91, 1) 0deg,rgba(207, 25, 29, 1) 360deg);height:100%;width:100%;opacity:1"></div></foreignObject></g></g><path d="M55.3125 1.875H42.1875C41.4416 1.875 40.7262 2.17132 40.1988 2.69876C39.6713 3.22621 39.375 3.94158 39.375 4.6875V14.0625C39.375 14.8084 39.6713 15.5238 40.1988 16.0512C40.7262 16.5787 41.4416 16.875 42.1875 16.875H47.8125V20.625L51.5625 16.875H55.3125C56.0584 16.875 56.7738 16.5787 57.3012 16.0512C57.8287 15.5238 58.125 14.8084 58.125 14.0625V4.6875C58.125 3.94158 57.8287 3.22621 57.3012 2.69876C56.7738 2.17132 56.0584 1.875 55.3125 1.875ZM51.5625 14.0625H42.1875V12.1875H51.5625V14.0625ZM55.3125 14.0625H53.4375V12.1875H55.3125V14.0625ZM55.3125 10.3125H42.1875V8.4375H55.3125V10.3125ZM55.3125 6.5625H42.1875V4.6875H55.3125V6.5625Z" data-figma-gradient-fill="{&#34;type&#34;:&#34;GRADIENT_ANGULAR&#34;,&#34;stops&#34;:[{&#34;color&#34;:{&#34;r&#34;:0.13725490868091583,&#34;g&#34;:0.34117648005485535,&#34;b&#34;:0.35686275362968445,&#34;a&#34;:1.0},&#34;position&#34;:0.0},{&#34;color&#34;:{&#34;r&#34;:0.81466472148895264,&#34;g&#34;:0.10143530368804932,&#34;b&#34;:0.11417154222726822,&#34;a&#34;:1.0},&#34;position&#34;:1.0}],&#34;stopsVar&#34;:[],&#34;transform&#34;:{&#34;m00&#34;:1.1481064673119867e-15,&#34;m01&#34;:-18.750,&#34;m02&#34;:58.1250,&#34;m10&#34;:18.750,&#34;m11&#34;:1.1481064673119867e-15,&#34;m12&#34;:1.8750},&#34;opacity&#34;:1.0,&#34;blendMode&#34;:&#34;NORMAL&#34;,&#34;visible&#34;:true}"/>
<g clip-path="url(#paint1_angular_1_1515_clip_path)" data-figma-skip-parse="true"><g transform="matrix(0 0.0009375 -0.0028125 0 22.5 43.125)"><foreignObject x="-9533.33" y="-9533.33" width="19066.7" height="19066.7"><div xmlns="http://www.w3.org/1999/xhtml" style="background:conic-gradient(from 90deg,rgba(35, 87, 91, 1) 0deg,rgba(207, 25, 29, 1) 360deg);height:100%;width:100%;opacity:1"></div></foreignObject></g></g><path d="M19.6875 42.1875H25.3125V44.0625H19.6875V42.1875Z" data-figma-gradient-fill="{&#34;type&#34;:&#34;GRADIENT_ANGULAR&#34;,&#34;stops&#34;:[{&#34;color&#34;:{&#34;r&#34;:0.13725490868091583,&#34;g&#34;:0.34117648005485535,&#34;b&#34;:0.35686275362968445,&#34;a&#34;:1.0},&#34;position&#34;:0.0},{&#34;color&#34;:{&#34;r&#34;:0.81466472148895264,&#34;g&#34;:0.10143530368804932,&#34;b&#34;:0.11417154222726822,&#34;a&#34;:1.0},&#34;position&#34;:1.0}],&#34;stopsVar&#34;:[],&#34;transform&#34;:{&#34;m00&#34;:3.4443191901777233e-16,&#34;m01&#34;:-5.6250,&#34;m02&#34;:25.31250,&#34;m10&#34;:1.8750,&#34;m11&#34;:1.1481064408422071e-16,&#34;m12&#34;:42.18750},&#34;opacity&#34;:1.0,&#34;blendMode&#34;:&#34;NORMAL&#34;,&#34;visible&#34;:true}"/>
<g clip-path="url(#paint2_angular_1_1515_clip_path)" data-figma-skip-parse="true"><g transform="matrix(0 0.001875 -0.001875 0 4.6875 55.3125)"><foreignObject x="-5266.67" y="-5266.67" width="10533.3" height="10533.3"><div xmlns="http://www.w3.org/1999/xhtml" style="background:conic-gradient(from 90deg,rgba(35, 87, 91, 1) 0deg,rgba(207, 25, 29, 1) 360deg);height:100%;width:100%;opacity:1"></div></foreignObject></g></g><path d="M2.8125 53.4375H6.5625V57.1875H2.8125V53.4375Z" data-figma-gradient-fill="{&#34;type&#34;:&#34;GRADIENT_ANGULAR&#34;,&#34;stops&#34;:[{&#34;color&#34;:{&#34;r&#34;:0.13725490868091583,&#34;g&#34;:0.34117648005485535,&#34;b&#34;:0.35686275362968445,&#34;a&#34;:1.0},&#34;position&#34;:0.0},{&#34;color&#34;:{&#34;r&#34;:0.81466472148895264,&#34;g&#34;:0.10143530368804932,&#34;b&#34;:0.11417154222726822,&#34;a&#34;:1.0},&#34;position&#34;:1.0}],&#34;stopsVar&#34;:[],&#34;transform&#34;:{&#34;m00&#34;:2.2962128816844142e-16,&#34;m01&#34;:-3.750,&#34;m02&#34;:6.56250,&#34;m10&#34;:3.750,&#34;m11&#34;:2.2962128816844142e-16,&#34;m12&#34;:53.43750},&#34;opacity&#34;:1.0,&#34;blendMode&#34;:&#34;NORMAL&#34;,&#34;visible&#34;:true}"/>
<g clip-path="url(#paint3_angular_1_1515_clip_path)" data-figma-skip-parse="true"><g transform="matrix(0 0.009375 -0.0121875 0 22.5 30.9375)"><foreignObject x="-1853.33" y="-1853.33" width="3706.67" height="3706.67"><div xmlns="http://www.w3.org/1999/xhtml" style="background:conic-gradient(from 90deg,rgba(35, 87, 91, 1) 0deg,rgba(207, 25, 29, 1) 360deg);height:100%;width:100%;opacity:1"></div></foreignObject></g></g><path d="M34.6875 37.5V24.375C34.6875 23.6291 34.3912 22.9137 33.8637 22.3863C33.3363 21.8588 32.6209 21.5625 31.875 21.5625H13.125C12.3791 21.5625 11.6637 21.8588 11.1363 22.3863C10.6088 22.9137 10.3125 23.6291 10.3125 24.375V37.5C10.3125 38.2459 10.6088 38.9613 11.1363 39.4887C11.6637 40.0162 12.3791 40.3125 13.125 40.3125H31.875C32.6209 40.3125 33.3363 40.0162 33.8637 39.4887C34.3912 38.9613 34.6875 38.2459 34.6875 37.5ZM12.1875 27.1875C12.1875 26.4458 12.4074 25.7208 12.8195 25.1041C13.2315 24.4874 13.8172 24.0068 14.5024 23.723C15.1877 23.4391 15.9417 23.3649 16.6691 23.5096C17.3965 23.6542 18.0647 24.0114 18.5891 24.5359C19.1136 25.0603 19.4708 25.7285 19.6154 26.4559C19.7601 27.1833 19.6859 27.9373 19.402 28.6226C19.1182 29.3078 18.6376 29.8935 18.0209 30.3055C17.4042 30.7176 16.6792 30.9375 15.9375 30.9375C14.9429 30.9375 13.9891 30.5424 13.2858 29.8391C12.5826 29.1359 12.1875 28.1821 12.1875 27.1875ZM22.5 38.4375C21.2573 38.436 20.0658 37.9417 19.1871 37.0629C18.3083 36.1842 17.814 34.9927 17.8125 33.75C17.8125 33.5014 17.9113 33.2629 18.0871 33.0871C18.2629 32.9113 18.5014 32.8125 18.75 32.8125H26.25C26.4986 32.8125 26.7371 32.9113 26.9129 33.0871C27.0887 33.2629 27.1875 33.5014 27.1875 33.75C27.186 34.9927 26.6917 36.1842 25.8129 37.0629C24.9342 37.9417 23.7427 38.436 22.5 38.4375ZM29.0625 30.9375C28.3208 30.9375 27.5958 30.7176 26.9791 30.3055C26.3624 29.8935 25.8818 29.3078 25.598 28.6226C25.3141 27.9373 25.2399 27.1833 25.3846 26.4559C25.5292 25.7285 25.8864 25.0603 26.4109 24.5359C26.9353 24.0114 27.6035 23.6542 28.3309 23.5096C29.0583 23.3649 29.8123 23.4391 30.4976 23.723C31.1828 24.0068 31.7685 24.4874 32.1805 25.1041C32.5926 25.7208 32.8125 26.4458 32.8125 27.1875C32.8125 28.1821 32.4174 29.1359 31.7141 29.8391C31.0109 30.5424 30.0571 30.9375 29.0625 30.9375Z" data-figma-gradient-fill="{&#34;type&#34;:&#34;GRADIENT_ANGULAR&#34;,&#34;stops&#34;:[{&#34;color&#34;:{&#34;r&#34;:0.13725490868091583,&#34;g&#34;:0.34117648005485535,&#34;b&#34;:0.35686275362968445,&#34;a&#34;:1.0},&#34;position&#34;:0.0},{&#34;color&#34;:{&#34;r&#34;:0.81466472148895264,&#34;g&#34;:0.10143530368804932,&#34;b&#34;:0.11417154222726822,&#34;a&#34;:1.0},&#34;position&#34;:1.0}],&#34;stopsVar&#34;:[],&#34;transform&#34;:{&#34;m00&#34;:1.4925383333901998e-15,&#34;m01&#34;:-24.3750,&#34;m02&#34;:34.68750,&#34;m10&#34;:18.750,&#34;m11&#34;:1.1481064673119867e-15,&#34;m12&#34;:21.56250},&#34;opacity&#34;:1.0,&#34;blendMode&#34;:&#34;NORMAL&#34;,&#34;visible&#34;:true}"/>
<g clip-path="url(#paint4_angular_1_1515_clip_path)" data-figma-skip-parse="true"><g transform="matrix(0 0.0009375 -0.00265219 0 22.5 35.625)"><foreignObject x="-9533.33" y="-9533.33" width="19066.7" height="19066.7"><div xmlns="http://www.w3.org/1999/xhtml" style="background:conic-gradient(from 90deg,rgba(35, 87, 91, 1) 0deg,rgba(207, 25, 29, 1) 360deg);height:100%;width:100%;opacity:1"></div></foreignObject></g></g><path d="M22.5 36.5625C23.0815 36.5618 23.6486 36.3812 24.1234 36.0455C24.5982 35.7098 24.9576 35.2355 25.1522 34.6875H19.8478C20.0424 35.2355 20.4018 35.7098 20.8766 36.0455C21.3515 36.3812 21.9185 36.5618 22.5 36.5625Z" data-figma-gradient-fill="{&#34;type&#34;:&#34;GRADIENT_ANGULAR&#34;,&#34;stops&#34;:[{&#34;color&#34;:{&#34;r&#34;:0.13725490868091583,&#34;g&#34;:0.34117648005485535,&#34;b&#34;:0.35686275362968445,&#34;a&#34;:1.0},&#34;position&#34;:0.0},{&#34;color&#34;:{&#34;r&#34;:0.81466472148895264,&#34;g&#34;:0.10143530368804932,&#34;b&#34;:0.11417154222726822,&#34;a&#34;:1.0},&#34;position&#34;:1.0}],&#34;stopsVar&#34;:[],&#34;transform&#34;:{&#34;m00&#34;:3.2479938936631216e-16,&#34;m01&#34;:-5.3043761253356934,&#34;m02&#34;:25.152215957641602,&#34;m10&#34;:1.8750,&#34;m11&#34;:1.1481064408422071e-16,&#34;m12&#34;:34.68750},&#34;opacity&#34;:1.0,&#34;blendMode&#34;:&#34;NORMAL&#34;,&#34;visible&#34;:true}"/>
<g clip-path="url(#paint5_angular_1_1515_clip_path)" data-figma-skip-parse="true"><g transform="matrix(0 0.001875 -0.001875 0 15.9375 27.1875)"><foreignObject x="-5266.67" y="-5266.67" width="10533.3" height="10533.3"><div xmlns="http://www.w3.org/1999/xhtml" style="background:conic-gradient(from 90deg,rgba(35, 87, 91, 1) 0deg,rgba(207, 25, 29, 1) 360deg);height:100%;width:100%;opacity:1"></div></foreignObject></g></g><path d="M15.9375 29.0625C16.973 29.0625 17.8125 28.223 17.8125 27.1875C17.8125 26.152 16.973 25.3125 15.9375 25.3125C14.902 25.3125 14.0625 26.152 14.0625 27.1875C14.0625 28.223 14.902 29.0625 15.9375 29.0625Z" data-figma-gradient-fill="{&#34;type&#34;:&#34;GRADIENT_ANGULAR&#34;,&#34;stops&#34;:[{&#34;color&#34;:{&#34;r&#34;:0.13725490868091583,&#34;g&#34;:0.34117648005485535,&#34;b&#34;:0.35686275362968445,&#34;a&#34;:1.0},&#34;position&#34;:0.0},{&#34;color&#34;:{&#34;r&#34;:0.81466472148895264,&#34;g&#34;:0.10143530368804932,&#34;b&#34;:0.11417154222726822,&#34;a&#34;:1.0},&#34;position&#34;:1.0}],&#34;stopsVar&#34;:[],&#34;transform&#34;:{&#34;m00&#34;:2.2962128816844142e-16,&#34;m01&#34;:-3.750,&#34;m02&#34;:17.81250,&#34;m10&#34;:3.750,&#34;m11&#34;:2.2962128816844142e-16,&#34;m12&#34;:25.31250},&#34;opacity&#34;:1.0,&#34;blendMode&#34;:&#34;NORMAL&#34;,&#34;visible&#34;:true}"/>
<g clip-path="url(#paint6_angular_1_1515_clip_path)" data-figma-skip-parse="true"><g transform="matrix(0 0.001875 -0.001875 0 29.0625 27.1875)"><foreignObject x="-5266.67" y="-5266.67" width="10533.3" height="10533.3"><div xmlns="http://www.w3.org/1999/xhtml" style="background:conic-gradient(from 90deg,rgba(35, 87, 91, 1) 0deg,rgba(207, 25, 29, 1) 360deg);height:100%;width:100%;opacity:1"></div></foreignObject></g></g><path d="M29.0625 29.0625C30.098 29.0625 30.9375 28.223 30.9375 27.1875C30.9375 26.152 30.098 25.3125 29.0625 25.3125C28.027 25.3125 27.1875 26.152 27.1875 27.1875C27.1875 28.223 28.027 29.0625 29.0625 29.0625Z" data-figma-gradient-fill="{&#34;type&#34;:&#34;GRADIENT_ANGULAR&#34;,&#34;stops&#34;:[{&#34;color&#34;:{&#34;r&#34;:0.13725490868091583,&#34;g&#34;:0.34117648005485535,&#34;b&#34;:0.35686275362968445,&#34;a&#34;:1.0},&#34;position&#34;:0.0},{&#34;color&#34;:{&#34;r&#34;:0.81466472148895264,&#34;g&#34;:0.10143530368804932,&#34;b&#34;:0.11417154222726822,&#34;a&#34;:1.0},&#34;position&#34;:1.0}],&#34;stopsVar&#34;:[],&#34;transform&#34;:{&#34;m00&#34;:2.2962128816844142e-16,&#34;m01&#34;:-3.750,&#34;m02&#34;:30.93750,&#34;m10&#34;:3.750,&#34;m11&#34;:2.2962128816844142e-16,&#34;m12&#34;:25.31250},&#34;opacity&#34;:1.0,&#34;blendMode&#34;:&#34;NORMAL&#34;,&#34;visible&#34;:true}"/>
<g clip-path="url(#paint7_angular_1_1515_clip_path)" data-figma-skip-parse="true"><g transform="matrix(0 0.0009375 -0.001875 0 4.6875 50.625)"><foreignObject x="-9533.33" y="-9533.33" width="19066.7" height="19066.7"><div xmlns="http://www.w3.org/1999/xhtml" style="background:conic-gradient(from 90deg,rgba(35, 87, 91, 1) 0deg,rgba(207, 25, 29, 1) 360deg);height:100%;width:100%;opacity:1"></div></foreignObject></g></g><path d="M2.8125 51.5625H6.5625V49.6875H4.6875C4.19022 49.6875 3.71331 49.885 3.36167 50.2367C3.01004 50.5883 2.8125 51.0652 2.8125 51.5625Z" data-figma-gradient-fill="{&#34;type&#34;:&#34;GRADIENT_ANGULAR&#34;,&#34;stops&#34;:[{&#34;color&#34;:{&#34;r&#34;:0.13725490868091583,&#34;g&#34;:0.34117648005485535,&#34;b&#34;:0.35686275362968445,&#34;a&#34;:1.0},&#34;position&#34;:0.0},{&#34;color&#34;:{&#34;r&#34;:0.81466472148895264,&#34;g&#34;:0.10143530368804932,&#34;b&#34;:0.11417154222726822,&#34;a&#34;:1.0},&#34;position&#34;:1.0}],&#34;stopsVar&#34;:[],&#34;transform&#34;:{&#34;m00&#34;:2.2962128816844142e-16,&#34;m01&#34;:-3.750,&#34;m02&#34;:6.56250,&#34;m10&#34;:1.8750,&#34;m11&#34;:1.1481064408422071e-16,&#34;m12&#34;:49.68750},&#34;opacity&#34;:1.0,&#34;blendMode&#34;:&#34;NORMAL&#34;,&#34;visible&#34;:true}"/>
<g clip-path="url(#paint8_angular_1_1515_clip_path)" data-figma-skip-parse="true"><g transform="matrix(0 0.0009375 -0.0065625 0 22.5 18.75)"><foreignObject x="-9533.33" y="-9533.33" width="19066.7" height="19066.7"><div xmlns="http://www.w3.org/1999/xhtml" style="background:conic-gradient(from 90deg,rgba(35, 87, 91, 1) 0deg,rgba(207, 25, 29, 1) 360deg);height:100%;width:100%;opacity:1"></div></foreignObject></g></g><path d="M28.125 17.8125H16.875C16.6264 17.8125 16.3879 17.9113 16.2121 18.0871C16.0363 18.2629 15.9375 18.5014 15.9375 18.75V19.6875H29.0625V18.75C29.0625 18.5014 28.9637 18.2629 28.7879 18.0871C28.6121 17.9113 28.3736 17.8125 28.125 17.8125Z" data-figma-gradient-fill="{&#34;type&#34;:&#34;GRADIENT_ANGULAR&#34;,&#34;stops&#34;:[{&#34;color&#34;:{&#34;r&#34;:0.13725490868091583,&#34;g&#34;:0.34117648005485535,&#34;b&#34;:0.35686275362968445,&#34;a&#34;:1.0},&#34;position&#34;:0.0},{&#34;color&#34;:{&#34;r&#34;:0.81466472148895264,&#34;g&#34;:0.10143530368804932,&#34;b&#34;:0.11417154222726822,&#34;a&#34;:1.0},&#34;position&#34;:1.0}],&#34;stopsVar&#34;:[],&#34;transform&#34;:{&#34;m00&#34;:8.0367449535465518e-16,&#34;m01&#34;:-13.1250,&#34;m02&#34;:29.06250,&#34;m10&#34;:1.8750,&#34;m11&#34;:1.1481064408422071e-16,&#34;m12&#34;:17.81250},&#34;opacity&#34;:1.0,&#34;blendMode&#34;:&#34;NORMAL&#34;,&#34;visible&#34;:true}"/>
<g clip-path="url(#paint9_angular_1_1515_clip_path)" data-figma-skip-parse="true"><g transform="matrix(0 0.0046875 -0.001875 0 6.5625 30.9375)"><foreignObject x="-5266.67" y="-5266.67" width="10533.3" height="10533.3"><div xmlns="http://www.w3.org/1999/xhtml" style="background:conic-gradient(from 90deg,rgba(35, 87, 91, 1) 0deg,rgba(207, 25, 29, 1) 360deg);height:100%;width:100%;opacity:1"></div></foreignObject></g></g><path d="M8.4375 26.25H6.5625C6.06522 26.25 5.58831 26.4475 5.23667 26.7992C4.88504 27.1508 4.6875 27.6277 4.6875 28.125V33.75C4.6875 34.2473 4.88504 34.7242 5.23667 35.0758C5.58831 35.4275 6.06522 35.625 6.5625 35.625H8.4375V26.25Z" data-figma-gradient-fill="{&#34;type&#34;:&#34;GRADIENT_ANGULAR&#34;,&#34;stops&#34;:[{&#34;color&#34;:{&#34;r&#34;:0.13725490868091583,&#34;g&#34;:0.34117648005485535,&#34;b&#34;:0.35686275362968445,&#34;a&#34;:1.0},&#34;position&#34;:0.0},{&#34;color&#34;:{&#34;r&#34;:0.81466472148895264,&#34;g&#34;:0.10143530368804932,&#34;b&#34;:0.11417154222726822,&#34;a&#34;:1.0},&#34;position&#34;:1.0}],&#34;stopsVar&#34;:[],&#34;transform&#34;:{&#34;m00&#34;:2.2962128816844142e-16,&#34;m01&#34;:-3.750,&#34;m02&#34;:8.43750,&#34;m10&#34;:9.3750,&#34;m11&#34;:5.7405323365599336e-16,&#34;m12&#34;:26.250},&#34;opacity&#34;:1.0,&#34;blendMode&#34;:&#34;NORMAL&#34;,&#34;visible&#34;:true}"/>
<g clip-path="url(#paint10_angular_1_1515_clip_path)" data-figma-skip-parse="true"><g transform="matrix(0 0.0046875 -0.001875 0 38.4375 30.9375)"><foreignObject x="-5266.67" y="-5266.67" width="10533.3" height="10533.3"><div xmlns="http://www.w3.org/1999/xhtml" style="background:conic-gradient(from 90deg,rgba(35, 87, 91, 1) 0deg,rgba(207, 25, 29, 1) 360deg);height:100%;width:100%;opacity:1"></div></foreignObject></g></g><path d="M40.3125 33.75V28.125C40.3125 27.6277 40.115 27.1508 39.7633 26.7992C39.4117 26.4475 38.9348 26.25 38.4375 26.25H36.5625V35.625H38.4375C38.9348 35.625 39.4117 35.4275 39.7633 35.0758C40.115 34.7242 40.3125 34.2473 40.3125 33.75Z" data-figma-gradient-fill="{&#34;type&#34;:&#34;GRADIENT_ANGULAR&#34;,&#34;stops&#34;:[{&#34;color&#34;:{&#34;r&#34;:0.13725490868091583,&#34;g&#34;:0.34117648005485535,&#34;b&#34;:0.35686275362968445,&#34;a&#34;:1.0},&#34;position&#34;:0.0},{&#34;color&#34;:{&#34;r&#34;:0.81466472148895264,&#34;g&#34;:0.10143530368804932,&#34;b&#34;:0.11417154222726822,&#34;a&#34;:1.0},&#34;position&#34;:1.0}],&#34;stopsVar&#34;:[],&#34;transform&#34;:{&#34;m00&#34;:2.2962128816844142e-16,&#34;m01&#34;:-3.750,&#34;m02&#34;:40.31250,&#34;m10&#34;:9.3750,&#34;m11&#34;:5.7405323365599336e-16,&#34;m12&#34;:26.250},&#34;opacity&#34;:1.0,&#34;blendMode&#34;:&#34;NORMAL&#34;,&#34;visible&#34;:true}"/>
<g clip-path="url(#paint11_angular_1_1515_clip_path)" data-figma-skip-parse="true"><g transform="matrix(0 0.0009375 -0.001875 0 40.3125 50.625)"><foreignObject x="-9533.33" y="-9533.33" width="19066.7" height="19066.7"><div xmlns="http://www.w3.org/1999/xhtml" style="background:conic-gradient(from 90deg,rgba(35, 87, 91, 1) 0deg,rgba(207, 25, 29, 1) 360deg);height:100%;width:100%;opacity:1"></div></foreignObject></g></g><path d="M40.3125 49.6875H38.4375V51.5625H42.1875C42.1875 51.0652 41.99 50.5883 41.6383 50.2367C41.2867 49.885 40.8098 49.6875 40.3125 49.6875Z" data-figma-gradient-fill="{&#34;type&#34;:&#34;GRADIENT_ANGULAR&#34;,&#34;stops&#34;:[{&#34;color&#34;:{&#34;r&#34;:0.13725490868091583,&#34;g&#34;:0.34117648005485535,&#34;b&#34;:0.35686275362968445,&#34;a&#34;:1.0},&#34;position&#34;:0.0},{&#34;color&#34;:{&#34;r&#34;:0.81466472148895264,&#34;g&#34;:0.10143530368804932,&#34;b&#34;:0.11417154222726822,&#34;a&#34;:1.0},&#34;position&#34;:1.0}],&#34;stopsVar&#34;:[],&#34;transform&#34;:{&#34;m00&#34;:2.2962128816844142e-16,&#34;m01&#34;:-3.750,&#34;m02&#34;:42.18750,&#34;m10&#34;:1.8750,&#34;m11&#34;:1.1481064408422071e-16,&#34;m12&#34;:49.68750},&#34;opacity&#34;:1.0,&#34;blendMode&#34;:&#34;NORMAL&#34;,&#34;visible&#34;:true}"/>
<g clip-path="url(#paint12_angular_1_1515_clip_path)" data-figma-skip-parse="true"><g transform="matrix(0 0.005625 -0.0140625 0 22.5 51.5625)"><foreignObject x="-2422.22" y="-2422.22" width="4844.44" height="4844.44"><div xmlns="http://www.w3.org/1999/xhtml" style="background:conic-gradient(from 90deg,rgba(35, 87, 91, 1) 0deg,rgba(207, 25, 29, 1) 360deg);height:100%;width:100%;opacity:1"></div></foreignObject></g></g><path d="M33.75 45.9375H11.25C10.5041 45.9375 9.78871 46.2338 9.26126 46.7613C8.73382 47.2887 8.4375 48.0041 8.4375 48.75V57.1875H13.125V52.5C13.125 52.2514 13.2238 52.0129 13.3996 51.8371C13.5754 51.6613 13.8139 51.5625 14.0625 51.5625H30.9375C31.1861 51.5625 31.4246 51.6613 31.6004 51.8371C31.7762 52.0129 31.875 52.2514 31.875 52.5V57.1875H36.5625V48.75C36.5625 48.0041 36.2662 47.2887 35.7387 46.7613C35.2113 46.2338 34.4959 45.9375 33.75 45.9375ZM19.6875 49.6875H17.8125V47.8125H19.6875V49.6875ZM23.4375 49.6875H21.5625V47.8125H23.4375V49.6875ZM27.1875 49.6875H25.3125V47.8125H27.1875V49.6875Z" data-figma-gradient-fill="{&#34;type&#34;:&#34;GRADIENT_ANGULAR&#34;,&#34;stops&#34;:[{&#34;color&#34;:{&#34;r&#34;:0.13725490868091583,&#34;g&#34;:0.34117648005485535,&#34;b&#34;:0.35686275362968445,&#34;a&#34;:1.0},&#34;position&#34;:0.0},{&#34;color&#34;:{&#34;r&#34;:0.81466472148895264,&#34;g&#34;:0.10143530368804932,&#34;b&#34;:0.11417154222726822,&#34;a&#34;:1.0},&#34;position&#34;:1.0}],&#34;stopsVar&#34;:[],&#34;transform&#34;:{&#34;m00&#34;:1.7221596480284209e-15,&#34;m01&#34;:-28.1250,&#34;m02&#34;:36.56250,&#34;m10&#34;:11.250,&#34;m11&#34;:6.8886383803554467e-16,&#34;m12&#34;:45.93750},&#34;opacity&#34;:1.0,&#34;blendMode&#34;:&#34;NORMAL&#34;,&#34;visible&#34;:true}"/>
<g clip-path="url(#paint13_angular_1_1515_clip_path)" data-figma-skip-parse="true"><g transform="matrix(0 0.001875 -0.001875 0 40.3125 55.3125)"><foreignObject x="-5266.67" y="-5266.67" width="10533.3" height="10533.3"><div xmlns="http://www.w3.org/1999/xhtml" style="background:conic-gradient(from 90deg,rgba(35, 87, 91, 1) 0deg,rgba(207, 25, 29, 1) 360deg);height:100%;width:100%;opacity:1"></div></foreignObject></g></g><path d="M38.4375 53.4375H42.1875V57.1875H38.4375V53.4375Z" data-figma-gradient-fill="{&#34;type&#34;:&#34;GRADIENT_ANGULAR&#34;,&#34;stops&#34;:[{&#34;color&#34;:{&#34;r&#34;:0.13725490868091583,&#34;g&#34;:0.34117648005485535,&#34;b&#34;:0.35686275362968445,&#34;a&#34;:1.0},&#34;position&#34;:0.0},{&#34;color&#34;:{&#34;r&#34;:0.81466472148895264,&#34;g&#34;:0.10143530368804932,&#34;b&#34;:0.11417154222726822,&#34;a&#34;:1.0},&#34;position&#34;:1.0}],&#34;stopsVar&#34;:[],&#34;transform&#34;:{&#34;m00&#34;:2.2962128816844142e-16,&#34;m01&#34;:-3.750,&#34;m02&#34;:42.18750,&#34;m10&#34;:3.750,&#34;m11&#34;:2.2962128816844142e-16,&#34;m12&#34;:53.43750},&#34;opacity&#34;:1.0,&#34;blendMode&#34;:&#34;NORMAL&#34;,&#34;visible&#34;:true}"/>
<g clip-path="url(#paint14_angular_1_1515_clip_path)" data-figma-skip-parse="true"><g transform="matrix(0 0.001875 -0.0075 0 22.5 55.3125)"><foreignObject x="-5266.67" y="-5266.67" width="10533.3" height="10533.3"><div xmlns="http://www.w3.org/1999/xhtml" style="background:conic-gradient(from 90deg,rgba(35, 87, 91, 1) 0deg,rgba(207, 25, 29, 1) 360deg);height:100%;width:100%;opacity:1"></div></foreignObject></g></g><path d="M15 53.4375H30V57.1875H15V53.4375Z" data-figma-gradient-fill="{&#34;type&#34;:&#34;GRADIENT_ANGULAR&#34;,&#34;stops&#34;:[{&#34;color&#34;:{&#34;r&#34;:0.13725490868091583,&#34;g&#34;:0.34117648005485535,&#34;b&#34;:0.35686275362968445,&#34;a&#34;:1.0},&#34;position&#34;:0.0},{&#34;color&#34;:{&#34;r&#34;:0.81466472148895264,&#34;g&#34;:0.10143530368804932,&#34;b&#34;:0.11417154222726822,&#34;a&#34;:1.0},&#34;position&#34;:1.0}],&#34;stopsVar&#34;:[],&#34;transform&#34;:{&#34;m00&#34;:9.1848515267376569e-16,&#34;m01&#34;:-15.0,&#34;m02&#34;:30.0,&#34;m10&#34;:3.750,&#34;m11&#34;:2.2962128816844142e-16,&#34;m12&#34;:53.43750},&#34;opacity&#34;:1.0,&#34;blendMode&#34;:&#34;NORMAL&#34;,&#34;visible&#34;:true}"/>
<g clip-path="url(#paint15_angular_1_1515_clip_path)" data-figma-skip-parse="true"><g transform="matrix(0 0.00802888 -0.0168338 0 22.5 16.4661)"><foreignObject x="-1996.4" y="-1996.4" width="3992.81" height="3992.81"><div xmlns="http://www.w3.org/1999/xhtml" style="background:conic-gradient(from 90deg,rgba(35, 87, 91, 1) 0deg,rgba(207, 25, 29, 1) 360deg);height:100%;width:100%;opacity:1"></div></foreignObject></g></g><path d="M7.54782 24.375C7.77767 20.5651 9.45316 16.9866 12.2322 14.3702C15.0112 11.7538 18.6841 10.2968 22.5009 10.2968C26.3178 10.2968 29.9907 11.7538 32.7697 14.3702C35.5487 16.9866 37.2242 20.5651 37.4541 24.375H38.4375C38.74 24.3784 39.041 24.4187 39.3338 24.495C39.1295 20.1679 37.2667 16.0856 34.1321 13.0955C30.9976 10.1054 26.832 8.43726 22.5 8.43726C18.168 8.43726 14.0024 10.1054 10.8679 13.0955C7.73331 16.0856 5.87055 20.1679 5.66626 24.495C5.95902 24.4187 6.25999 24.3784 6.56251 24.375H7.54782Z" data-figma-gradient-fill="{&#34;type&#34;:&#34;GRADIENT_ANGULAR&#34;,&#34;stops&#34;:[{&#34;color&#34;:{&#34;r&#34;:0.13725490868091583,&#34;g&#34;:0.34117648005485535,&#34;b&#34;:0.35686275362968445,&#34;a&#34;:1.0},&#34;position&#34;:0.0},{&#34;color&#34;:{&#34;r&#34;:0.81466472148895264,&#34;g&#34;:0.10143530368804932,&#34;b&#34;:0.11417154222726822,&#34;a&#34;:1.0},&#34;position&#34;:1.0}],&#34;stopsVar&#34;:[],&#34;transform&#34;:{&#34;m00&#34;:2.0615401272465646e-15,&#34;m01&#34;:-33.667503356933594,&#34;m02&#34;:39.333763122558594,&#34;m10&#34;:16.057756423950195,&#34;m11&#34;:9.8325405638115780e-16,&#34;m12&#34;:8.4372558593750},&#34;opacity&#34;:1.0,&#34;blendMode&#34;:&#34;NORMAL&#34;,&#34;visible&#34;:true}"/>
<defs>
<clipPath id="paint0_angular_1_1515_clip_path"><path d="M55.3125 1.875H42.1875C41.4416 1.875 40.7262 2.17132 40.1988 2.69876C39.6713 3.22621 39.375 3.94158 39.375 4.6875V14.0625C39.375 14.8084 39.6713 15.5238 40.1988 16.0512C40.7262 16.5787 41.4416 16.875 42.1875 16.875H47.8125V20.625L51.5625 16.875H55.3125C56.0584 16.875 56.7738 16.5787 57.3012 16.0512C57.8287 15.5238 58.125 14.8084 58.125 14.0625V4.6875C58.125 3.94158 57.8287 3.22621 57.3012 2.69876C56.7738 2.17132 56.0584 1.875 55.3125 1.875ZM51.5625 14.0625H42.1875V12.1875H51.5625V14.0625ZM55.3125 14.0625H53.4375V12.1875H55.3125V14.0625ZM55.3125 10.3125H42.1875V8.4375H55.3125V10.3125ZM55.3125 6.5625H42.1875V4.6875H55.3125V6.5625Z"/></clipPath><clipPath id="paint1_angular_1_1515_clip_path"><path d="M19.6875 42.1875H25.3125V44.0625H19.6875V42.1875Z"/></clipPath><clipPath id="paint2_angular_1_1515_clip_path"><path d="M2.8125 53.4375H6.5625V57.1875H2.8125V53.4375Z"/></clipPath><clipPath id="paint3_angular_1_1515_clip_path"><path d="M34.6875 37.5V24.375C34.6875 23.6291 34.3912 22.9137 33.8637 22.3863C33.3363 21.8588 32.6209 21.5625 31.875 21.5625H13.125C12.3791 21.5625 11.6637 21.8588 11.1363 22.3863C10.6088 22.9137 10.3125 23.6291 10.3125 24.375V37.5C10.3125 38.2459 10.6088 38.9613 11.1363 39.4887C11.6637 40.0162 12.3791 40.3125 13.125 40.3125H31.875C32.6209 40.3125 33.3363 40.0162 33.8637 39.4887C34.3912 38.9613 34.6875 38.2459 34.6875 37.5ZM12.1875 27.1875C12.1875 26.4458 12.4074 25.7208 12.8195 25.1041C13.2315 24.4874 13.8172 24.0068 14.5024 23.723C15.1877 23.4391 15.9417 23.3649 16.6691 23.5096C17.3965 23.6542 18.0647 24.0114 18.5891 24.5359C19.1136 25.0603 19.4708 25.7285 19.6154 26.4559C19.7601 27.1833 19.6859 27.9373 19.402 28.6226C19.1182 29.3078 18.6376 29.8935 18.0209 30.3055C17.4042 30.7176 16.6792 30.9375 15.9375 30.9375C14.9429 30.9375 13.9891 30.5424 13.2858 29.8391C12.5826 29.1359 12.1875 28.1821 12.1875 27.1875ZM22.5 38.4375C21.2573 38.436 20.0658 37.9417 19.1871 37.0629C18.3083 36.1842 17.814 34.9927 17.8125 33.75C17.8125 33.5014 17.9113 33.2629 18.0871 33.0871C18.2629 32.9113 18.5014 32.8125 18.75 32.8125H26.25C26.4986 32.8125 26.7371 32.9113 26.9129 33.0871C27.0887 33.2629 27.1875 33.5014 27.1875 33.75C27.186 34.9927 26.6917 36.1842 25.8129 37.0629C24.9342 37.9417 23.7427 38.436 22.5 38.4375ZM29.0625 30.9375C28.3208 30.9375 27.5958 30.7176 26.9791 30.3055C26.3624 29.8935 25.8818 29.3078 25.598 28.6226C25.3141 27.9373 25.2399 27.1833 25.3846 26.4559C25.5292 25.7285 25.8864 25.0603 26.4109 24.5359C26.9353 24.0114 27.6035 23.6542 28.3309 23.5096C29.0583 23.3649 29.8123 23.4391 30.4976 23.723C31.1828 24.0068 31.7685 24.4874 32.1805 25.1041C32.5926 25.7208 32.8125 26.4458 32.8125 27.1875C32.8125 28.1821 32.4174 29.1359 31.7141 29.8391C31.0109 30.5424 30.0571 30.9375 29.0625 30.9375Z"/></clipPath><clipPath id="paint4_angular_1_1515_clip_path"><path d="M22.5 36.5625C23.0815 36.5618 23.6486 36.3812 24.1234 36.0455C24.5982 35.7098 24.9576 35.2355 25.1522 34.6875H19.8478C20.0424 35.2355 20.4018 35.7098 20.8766 36.0455C21.3515 36.3812 21.9185 36.5618 22.5 36.5625Z"/></clipPath><clipPath id="paint5_angular_1_1515_clip_path"><path d="M15.9375 29.0625C16.973 29.0625 17.8125 28.223 17.8125 27.1875C17.8125 26.152 16.973 25.3125 15.9375 25.3125C14.902 25.3125 14.0625 26.152 14.0625 27.1875C14.0625 28.223 14.902 29.0625 15.9375 29.0625Z"/></clipPath><clipPath id="paint6_angular_1_1515_clip_path"><path d="M29.0625 29.0625C30.098 29.0625 30.9375 28.223 30.9375 27.1875C30.9375 26.152 30.098 25.3125 29.0625 25.3125C28.027 25.3125 27.1875 26.152 27.1875 27.1875C27.1875 28.223 28.027 29.0625 29.0625 29.0625Z"/></clipPath><clipPath id="paint7_angular_1_1515_clip_path"><path d="M2.8125 51.5625H6.5625V49.6875H4.6875C4.19022 49.6875 3.71331 49.885 3.36167 50.2367C3.01004 50.5883 2.8125 51.0652 2.8125 51.5625Z"/></clipPath><clipPath id="paint8_angular_1_1515_clip_path"><path d="M28.125 17.8125H16.875C16.6264 17.8125 16.3879 17.9113 16.2121 18.0871C16.0363 18.2629 15.9375 18.5014 15.9375 18.75V19.6875H29.0625V18.75C29.0625 18.5014 28.9637 18.2629 28.7879 18.0871C28.6121 17.9113 28.3736 17.8125 28.125 17.8125Z"/></clipPath><clipPath id="paint9_angular_1_1515_clip_path"><path d="M8.4375 26.25H6.5625C6.06522 26.25 5.58831 26.4475 5.23667 26.7992C4.88504 27.1508 4.6875 27.6277 4.6875 28.125V33.75C4.6875 34.2473 4.88504 34.7242 5.23667 35.0758C5.58831 35.4275 6.06522 35.625 6.5625 35.625H8.4375V26.25Z"/></clipPath><clipPath id="paint10_angular_1_1515_clip_path"><path d="M40.3125 33.75V28.125C40.3125 27.6277 40.115 27.1508 39.7633 26.7992C39.4117 26.4475 38.9348 26.25 38.4375 26.25H36.5625V35.625H38.4375C38.9348 35.625 39.4117 35.4275 39.7633 35.0758C40.115 34.7242 40.3125 34.2473 40.3125 33.75Z"/></clipPath><clipPath id="paint11_angular_1_1515_clip_path"><path d="M40.3125 49.6875H38.4375V51.5625H42.1875C42.1875 51.0652 41.99 50.5883 41.6383 50.2367C41.2867 49.885 40.8098 49.6875 40.3125 49.6875Z"/></clipPath><clipPath id="paint12_angular_1_1515_clip_path"><path d="M33.75 45.9375H11.25C10.5041 45.9375 9.78871 46.2338 9.26126 46.7613C8.73382 47.2887 8.4375 48.0041 8.4375 48.75V57.1875H13.125V52.5C13.125 52.2514 13.2238 52.0129 13.3996 51.8371C13.5754 51.6613 13.8139 51.5625 14.0625 51.5625H30.9375C31.1861 51.5625 31.4246 51.6613 31.6004 51.8371C31.7762 52.0129 31.875 52.2514 31.875 52.5V57.1875H36.5625V48.75C36.5625 48.0041 36.2662 47.2887 35.7387 46.7613C35.2113 46.2338 34.4959 45.9375 33.75 45.9375ZM19.6875 49.6875H17.8125V47.8125H19.6875V49.6875ZM23.4375 49.6875H21.5625V47.8125H23.4375V49.6875ZM27.1875 49.6875H25.3125V47.8125H27.1875V49.6875Z"/></clipPath><clipPath id="paint13_angular_1_1515_clip_path"><path d="M38.4375 53.4375H42.1875V57.1875H38.4375V53.4375Z"/></clipPath><clipPath id="paint14_angular_1_1515_clip_path"><path d="M15 53.4375H30V57.1875H15V53.4375Z"/></clipPath><clipPath id="paint15_angular_1_1515_clip_path"><path d="M7.54782 24.375C7.77767 20.5651 9.45316 16.9866 12.2322 14.3702C15.0112 11.7538 18.6841 10.2968 22.5009 10.2968C26.3178 10.2968 29.9907 11.7538 32.7697 14.3702C35.5487 16.9866 37.2242 20.5651 37.4541 24.375H38.4375C38.74 24.3784 39.041 24.4187 39.3338 24.495C39.1295 20.1679 37.2667 16.0856 34.1321 13.0955C30.9976 10.1054 26.832 8.43726 22.5 8.43726C18.168 8.43726 14.0024 10.1054 10.8679 13.0955C7.73331 16.0856 5.87055 20.1679 5.66626 24.495C5.95902 24.4187 6.25999 24.3784 6.56251 24.375H7.54782Z"/></clipPath></defs>
</svg>
